<?xml version="1.0" encoding="utf-8"?>
<!-- Generator: Adobe Illustrator 16.0.0, SVG Export Plug-In . SVG Version: 6.00 Build 0)  -->
<!DOCTYPE svg PUBLIC "-//W3C//DTD SVG 1.1//EN" "http://www.w3.org/Graphics/SVG/1.1/DTD/svg11.dtd">
<svg version="1.1" id="design" xmlns="http://www.w3.org/2000/svg" xmlns:xlink="http://www.w3.org/1999/xlink" x="0px" y="0px"
	 width="1000px" height="1000px" viewBox="0 0 1000 1000" enable-background="new 0 0 1000 1000" xml:space="preserve">
<g>
	<g>
		<path fill-rule="evenodd" clip-rule="evenodd" fill="#BA7300" d="M427.694,828.734C277.42,803.146,176.341,660.581,201.93,510.305
			c25.589-150.275,168.154-251.353,318.428-225.764c150.277,25.586,251.357,168.154,225.768,318.426
			C720.536,753.244,577.971,854.322,427.694,828.734z"/>
		<path fill-rule="evenodd" clip-rule="evenodd" fill="#A86300" d="M207.798,529.146
			c25.016-146.893,164.374-245.697,311.266-220.685c146.896,25.012,245.701,164.371,220.689,311.264
			c-2.647,15.547-6.589,30.547-11.671,44.926c8.221-19.387,14.355-40.018,18.044-61.684
			c25.589-150.271-75.49-292.84-225.768-318.426C370.084,258.952,227.52,360.029,201.93,510.305
			c-8.724,51.222-2.715,101.543,14.926,146.646C203.983,616.979,200.26,573.409,207.798,529.146z"/>
		<path fill-rule="evenodd" clip-rule="evenodd" fill="#D17C00" d="M207.798,583.965
			c25.016,146.895,164.374,245.697,311.266,220.684c146.896-25.012,245.701-164.369,220.689-311.262
			c-2.647-15.548-6.589-30.547-11.671-44.927c8.221,19.387,14.355,40.019,18.044,61.683
			c25.589,150.274-75.49,292.84-225.768,318.428C370.084,854.158,227.52,753.08,201.93,602.807
			c-8.724-51.223-2.715-101.544,14.926-146.646C203.983,496.133,200.26,539.701,207.798,583.965z"/>
		<path fill-rule="evenodd" clip-rule="evenodd" fill="#F8EA47" d="M474.026,231.366c-179.641,0-325.269,145.63-325.269,325.27
			c0,179.644,145.628,325.269,325.269,325.269c179.645,0,325.273-145.625,325.273-325.269
			C799.299,376.996,653.67,231.366,474.026,231.366z M474.026,832.649c-152.439,0-276.014-123.575-276.014-276.014
			c0-152.438,123.575-276.013,276.014-276.013c152.439,0,276.014,123.575,276.014,276.013
			C750.04,709.074,626.465,832.649,474.026,832.649z"/>
		<path fill-rule="evenodd" clip-rule="evenodd" fill="#F7CE3C" d="M736.47,642.297c-36.044,110.5-139.911,190.353-262.444,190.353
			c-122.532,0-226.396-79.853-262.44-190.353c-19.356-5.566-38.005-11.727-55.858-18.438
			C186.7,771.242,317.434,881.904,474.026,881.904c156.596,0,287.33-110.662,318.302-258.046
			C774.475,630.57,755.826,636.732,736.47,642.297z"/>
		<g>
			<g>
				<path fill="#FFFFFF" d="M201.642,436.582c-0.961,0-1.939-0.199-2.873-0.621c-3.521-1.588-5.087-5.731-3.499-9.253
					c31.244-69.229,87.016-123.494,157.041-152.796c3.563-1.496,7.661,0.189,9.153,3.752c1.492,3.564-0.189,7.661-3.753,9.154
					c-66.747,27.93-119.907,79.654-149.689,145.645C206.854,435.051,204.308,436.582,201.642,436.582z"/>
			</g>
			<path fill-rule="evenodd" clip-rule="evenodd" fill="#FFFFFF" d="M383.091,271.88c0,4.347-3.521,7.869-7.866,7.869
				c-4.348,0-7.87-3.522-7.87-7.869s3.521-7.87,7.87-7.87C379.569,264.01,383.091,267.533,383.091,271.88z"/>
		</g>
		<g>
			<path fill="#232222" d="M474.026,888.025c-182.729,0-331.39-148.662-331.39-331.39c0-182.729,148.661-331.39,331.39-331.39
				c182.731,0,331.394,148.661,331.394,331.39C805.419,739.363,656.757,888.025,474.026,888.025z M474.026,237.486
				c-175.979,0-319.148,143.17-319.148,319.149s143.169,319.148,319.148,319.148c175.981,0,319.152-143.169,319.152-319.148
				S650.007,237.486,474.026,237.486z M474.026,838.77c-155.569,0-282.134-126.564-282.134-282.134
				c0-155.567,126.565-282.133,282.134-282.133c155.57,0,282.135,126.565,282.135,282.133
				C756.161,712.205,629.596,838.77,474.026,838.77z M474.026,286.744c-148.819,0-269.893,121.072-269.893,269.892
				c0,148.818,121.073,269.893,269.893,269.893c148.82,0,269.893-121.074,269.893-269.893
				C743.919,407.816,622.846,286.744,474.026,286.744z"/>
		</g>
		<g>
			<g>
				<g>
					<g>
						<path fill-rule="evenodd" clip-rule="evenodd" fill="#232222" d="M618.23,434.273c-76.153-85.1-210.152-88.025-289.064,0.239
							c-9.348-4.04-18.635-8.32-28.124-12.086c-9.185-3.645-18.581-6.761-29.763-10.79c44.508-59.66,102.63-95.481,175.921-102.705
							c94.75-9.345,170.668,26.846,229.617,102.016C656.611,418.992,637.75,426.504,618.23,434.273z"/>
						<path fill-rule="evenodd" clip-rule="evenodd" fill="#232222" d="M665.263,718.505c-15.94,14.515-31.191,28.4-47.186,42.964
							c-34.63-53.697-81.215-83.643-144.03-83.607c-62.47,0.043-108.945,29.559-143.941,83.467
							c-15.77-14.227-31.222-28.167-48.794-44.029c14.195-15.703,26.344-30.824,40.238-44.132
							c22.501-21.559,49.399-36.434,78.838-46.55c4.577-1.572,14.529-2.287,14.529-2.287l117.167-0.062
							c0,0,7.432-0.148,10.783,0.922C593.823,641.553,634.062,672.122,665.263,718.505z"/>
						<path fill-rule="evenodd" clip-rule="evenodd" fill="#232222" d="M608.558,767.517c-16.675,8.214-32.851,16.185-48.856,24.067
							c-42.793-64.27-128.746-64.036-170.941-0.589c-7.08-3.065-14.444-5.905-21.49-9.384c-9.144-4.521-18.038-9.549-26.945-14.309
							c13.789-34.016,62.002-75.604,120.811-79.395C523.821,683.866,585.083,716.609,608.558,767.517z"/>
						<path fill-rule="evenodd" clip-rule="evenodd" fill="#232222" d="M561.263,472.215
							c-51.947-47.578-123.998-46.451-174.418,0.041c-15.646-10.797-31.334-21.623-46.998-32.43
							c65.944-80.43,201.518-81.029,268.428-0.018C592.826,450.461,577.343,461.132,561.263,472.215z"/>
						<path fill-rule="evenodd" clip-rule="evenodd" fill="#232222" d="M398.826,794.279c19.4-27.239,44.023-41.162,75.791-41.059
							c31.409,0.105,55.697,13.959,74.472,40.927C498.669,809.771,449.581,809.52,398.826,794.279z"/>
						<path fill-rule="evenodd" clip-rule="evenodd" fill="#232222" d="M394.977,479.922
							c38.538-44.892,120.948-43.676,158.082-0.192c-8.495,4.384-18.533,9.427-18.533,9.427l-125.969-0.561
							C408.557,488.596,399.393,482.916,394.977,479.922z"/>
						<path fill-rule="evenodd" clip-rule="evenodd" fill="#232222" d="M402.6,615.68c-16.347-33.407-38.25-62.31-67.095-85.615
							c-28.971-23.417-61.685-39.262-100.362-48.604c6.814-15.158,12.429-29.852,19.824-43.586
							c11.845-21.996,6.882-18.703,28.615-11.5c44.976,14.904,84.084,39.682,117.474,73.303c2.521,2.536,4.922,6.596,4.956,9.972
							c0.359,33.735,0.215,67.476,0.164,101.213c0,1.184-0.553,2.365-0.847,3.554C404.421,614.84,403.509,615.258,402.6,615.68z"/>
						<path fill-rule="evenodd" clip-rule="evenodd" fill="#232222" d="M329.098,651.57c-12.58-26.586-30.771-49.99-56.637-66.203
							c-12.774-8.006-27.14-13.451-40.672-20.287c-2.599-1.311-6.585-3.634-6.667-5.617c-0.919-22.879,1.752-45.366,8.72-68.275
							c72.769,18.138,125.108,60.182,158.553,125.792C370.979,628.684,350.26,640.008,329.098,651.57z"/>
						<path fill-rule="evenodd" clip-rule="evenodd" fill="#232222" d="M275.72,707.6c-29.667-39.045-46.592-83.176-50.403-133.808
							c27.239,7.866,49.741,21.319,67.426,41.529c10.103,11.548,17.812,25.241,26.119,38.272c1.294,2.031,1.226,6.811-0.27,8.455
							C304.871,677.137,290.697,691.818,275.72,707.6z"/>
						<path fill-rule="evenodd" clip-rule="evenodd" fill="#232222" d="M545.459,615.68c16.343-33.407,38.247-62.31,67.091-85.615
							c28.971-23.417,61.682-39.262,100.366-48.604c-6.818-15.158-12.43-29.852-19.824-43.586
							c-11.849-21.996-6.882-18.703-28.615-11.5c-44.979,14.904-84.084,39.682-117.478,73.303c-2.518,2.536-4.918,6.596-4.956,9.972
							c-0.359,33.735-0.215,67.476-0.164,101.213c0,1.184,0.55,2.365,0.847,3.554C543.635,614.84,544.547,615.258,545.459,615.68z"
							/>
						<path fill-rule="evenodd" clip-rule="evenodd" fill="#232222" d="M618.961,651.57c12.576-26.586,30.774-49.99,56.633-66.203
							c12.774-8.006,27.143-13.451,40.675-20.287c2.596-1.311,6.585-3.634,6.664-5.617c0.919-22.879-1.752-45.366-8.72-68.275
							c-72.769,18.138-125.108,60.182-158.55,125.792C577.077,628.684,597.799,640.008,618.961,651.57z"/>
						<path fill-rule="evenodd" clip-rule="evenodd" fill="#232222" d="M672.336,707.6c29.667-39.045,46.599-83.176,50.403-133.808
							c-27.239,7.866-49.741,21.319-67.423,41.529c-10.106,11.548-17.815,25.241-26.122,38.272c-1.294,2.031-1.226,6.811,0.27,8.455
							C643.188,677.137,657.355,691.818,672.336,707.6z"/>
					</g>
				</g>
				<g>
					<g>
						<path fill-rule="evenodd" clip-rule="evenodd" fill="#F7CE3C" d="M324.138,422.766c-6.452-2.846-13.129-5.79-19.872-8.467
							c-6.039-2.396-12.187-4.576-18.663-6.857c43.019-53.221,97.616-83.416,162.454-89.807c9.444-0.933,18.837-1.404,27.926-1.404
							c73.018,0,135.72,30.598,186.546,90.994l-41.949,16.701c-38.313-40.3-91.564-63.291-147.077-63.291
							c-55.95,0-107.743,22.451-146.547,63.37C326.017,423.592,325.078,423.178,324.138,422.766z"/>
					</g>
					<g>
						<path fill-rule="evenodd" clip-rule="evenodd" fill="#F7CE3C" d="M619.675,748.189
							c-36.885-52.479-85.795-79.071-145.516-79.071c-60.599,0.041-108.307,25.899-145.666,78.979l-34.866-31.465
							c2.459-2.787,4.867-5.543,7.227-8.248c9.01-10.322,17.519-20.07,26.744-28.902c20.374-19.521,45.113-34.107,75.63-44.597
							c2.319-0.796,8.409-1.537,12.016-1.812l116.842-0.063l0.929-0.006c3.976,0,6.527,0.317,7.2,0.518
							c46.896,15.059,84.101,42.469,113.499,83.67L619.675,748.189z"/>
					</g>
					<g>
						<path fill-rule="evenodd" clip-rule="evenodd" fill="#F7CE3C" d="M562.52,780.447c-22.017-29.204-53.935-45.797-88.647-45.797
							c-34.647,0-66.416,16.508-88.186,45.55c-0.055-0.024-0.109-0.046-0.164-0.068c-4.795-2.005-9.751-4.077-14.379-6.361
							c-6.254-3.091-12.556-6.515-18.649-9.829c-0.243-0.133-0.488-0.266-0.734-0.398c16.709-31.025,60.852-63.744,109.936-66.908
							c3.276-0.211,6.606-0.318,9.898-0.318c53.266,0,102.384,26.719,125.149,67.273L562.52,780.447z"/>
					</g>
					<g>
						<path fill-rule="evenodd" clip-rule="evenodd" fill="#F7CE3C" d="M352.887,438.199
							c29.896-32.003,73.482-50.179,121.102-50.179c47.503,0,91.13,18.176,121.217,50.178l-33.308,22.958
							c-25.497-21.293-56.435-32.943-87.845-32.943c-31.536,0-62.477,11.66-87.858,32.971L352.887,438.199z"/>
					</g>
					<g>
						<path fill-rule="evenodd" clip-rule="evenodd" fill="#F7CE3C" d="M474.231,797.044c-20.022,0-39.873-2.518-60.339-7.673
							c16.466-18.418,36.321-27.406,60.373-27.406h0.325c23.977,0.082,43.592,9.044,59.639,27.324
							C514.104,794.498,494.362,797.044,474.231,797.044z"/>
					</g>
					<g>
						<path fill-rule="evenodd" clip-rule="evenodd" fill="#F7CE3C" d="M411.078,479.864c-0.68-0.425-1.486-0.931-2.36-1.48
							c16.463-14.69,39.699-22.956,65.306-22.956c24.854,0,48.101,8.067,64.369,21.979c-2.425,1.23-4.522,2.289-5.926,2.996
							L411.078,479.864z"/>
					</g>
					<g>
						<path fill-rule="evenodd" clip-rule="evenodd" fill="#F7CE3C" d="M397.477,588.162c-15.493-25.315-34.418-47.076-56.476-64.9
							c-27.399-22.147-58.146-37.803-93.726-47.686c0.697-1.612,1.38-3.209,2.06-4.789c4.341-10.123,8.44-19.686,13.331-28.768
							c1.363-2.532,2.507-4.735,3.497-6.639c0.95-1.824,1.917-3.688,2.685-5.043c0.905,0.324,1.954,0.721,2.94,1.092
							c2.371,0.896,5.322,2.012,9.044,3.245c42.869,14.206,81.232,38.148,114.021,71.165c1.451,1.46,2.346,3.373,2.421,3.987
							C397.545,535.84,397.521,562.345,397.477,588.162z"/>
					</g>
					<g>
						<path fill-rule="evenodd" clip-rule="evenodd" fill="#F7CE3C" d="M332.855,639.555
							c-14.052-26.498-32.772-47.194-55.749-61.596c-8.782-5.502-18.167-9.814-27.243-13.982c-4.689-2.152-9.536-4.378-14.13-6.701
							c-0.837-0.422-1.482-0.785-1.971-1.082c-0.492-18.646,1.53-36.529,6.158-54.354c63.184,17.725,109.345,54.333,140.713,111.602
							L332.855,639.555z"/>
					</g>
					<g>
						<path fill-rule="evenodd" clip-rule="evenodd" fill="#F7CE3C" d="M276.607,693.98c-22.737-32.498-36.314-67.91-41.26-107.648
							c20.514,7.775,37.223,19.218,50.817,34.748c7.477,8.547,13.566,18.352,20.008,28.731c1.588,2.555,3.173,5.11,4.778,7.641
							c-10.175,11.153-20.562,22.058-31.536,33.577C278.483,692.009,277.547,692.992,276.607,693.98z"/>
					</g>
					<g>
						<path fill-rule="evenodd" clip-rule="evenodd" fill="#F7CE3C" d="M550.582,588.162c-0.048-25.819-0.072-52.332,0.202-78.42
							c0.072-0.526,0.97-2.442,2.422-3.904c32.792-33.015,71.152-56.959,114.021-71.163c3.723-1.233,6.674-2.35,9.044-3.245
							c0.983-0.371,2.036-0.768,2.94-1.092c0.765,1.355,1.732,3.217,2.682,5.041c0.99,1.905,2.135,4.108,3.501,6.643
							c4.884,9.072,8.982,18.625,13.32,28.742c0.68,1.586,1.37,3.193,2.066,4.813c-35.573,9.881-66.323,25.538-93.729,47.688
							C584.994,541.086,566.072,562.847,550.582,588.162z"/>
					</g>
					<g>
						<path fill-rule="evenodd" clip-rule="evenodd" fill="#F7CE3C" d="M567.421,613.441
							c31.368-57.269,77.526-93.877,140.713-111.602c4.628,17.824,6.65,35.708,6.158,54.355c-0.485,0.295-1.13,0.658-1.964,1.08
							c-4.597,2.323-9.444,4.549-14.133,6.701c-9.079,4.168-18.464,8.479-27.246,13.98c-22.98,14.41-41.701,35.104-55.746,61.596
							L567.421,613.441z"/>
					</g>
					<g>
						<path fill-rule="evenodd" clip-rule="evenodd" fill="#F7CE3C" d="M668.87,691.271c-11.053-11.602-21.511-22.584-31.765-33.819
							c1.602-2.53,3.187-5.079,4.771-7.63c6.445-10.384,12.535-20.191,20.019-28.742c13.59-15.532,30.296-26.973,50.813-34.748
							c-4.942,39.732-18.519,75.146-41.26,107.649C670.587,693.074,669.727,692.172,668.87,691.271z"/>
					</g>
				</g>
				<g>
					<g>
						<path fill-rule="evenodd" clip-rule="evenodd" fill="#F8EA47" d="M622.336,415.698
							c-39.354-39.569-92.988-62.059-148.833-62.059c-56.261,0-108.45,21.928-148.18,62.002c-6.005-2.646-12.187-5.347-18.475-7.844
							c-3.118-1.236-6.247-2.411-9.427-3.569c40.771-46.98,91.588-73.746,151.322-79.633c9.215-0.908,18.379-1.37,27.239-1.37
							c37.561,0,72.508,8.3,103.87,24.667c25.459,13.287,49.252,32.238,70.941,56.477L622.336,415.698z"/>
					</g>
					<g>
						<path fill-rule="evenodd" clip-rule="evenodd" fill="#F8EA47" d="M620.744,737.755
							c-37.687-50.208-86.918-75.632-146.585-75.632c-59.673,0.041-108.928,25.454-146.735,75.588l-23.988-21.648
							c0.902-1.033,1.797-2.059,2.688-3.078c8.904-10.199,17.313-19.833,26.31-28.45c19.629-18.806,43.528-32.882,73.069-43.032
							c1.513-0.49,6.469-1.151,10.015-1.434L533.016,640c2.708,0,4.648,0.166,5.39,0.289c43.326,13.98,78.113,38.896,105.954,75.963
							L620.744,737.755z"/>
					</g>
					<g>
						<path fill-rule="evenodd" clip-rule="evenodd" fill="#F8EA47" d="M383.47,771.68c-3.183-1.354-6.254-2.713-9.232-4.182
							c-4.205-2.078-8.46-4.328-12.668-6.594c16.436-24.727,53.429-54.251,100.578-57.289c3.125-0.201,6.305-0.305,9.447-0.305
							c47.121,0,92.216,23.012,115.155,57.404l-22.239,10.957c-23.167-28.141-55.54-44.017-90.638-44.017
							C438.737,727.655,406.422,743.545,383.47,771.68z"/>
					</g>
					<g>
						<path fill-rule="evenodd" clip-rule="evenodd" fill="#F8EA47" d="M363.731,437.184
							c28.281-26.978,67.553-42.168,110.257-42.168c42.599,0,81.908,15.191,110.349,42.177l-22.112,15.241
							c-25.931-20.211-56.811-31.216-88.172-31.216c-31.478,0-62.364,11.012-88.196,31.235L363.731,437.184z"/>
					</g>
					<g>
						<path fill-rule="evenodd" clip-rule="evenodd" fill="#F8EA47" d="M474.231,790.049c-15.404,0-30.719-1.539-46.321-4.672
							c13.167-11.127,28.291-16.418,46.355-16.418h0.301c17.99,0.063,32.939,5.338,45.816,16.366
							C504.981,788.493,489.721,790.049,474.231,790.049z"/>
					</g>
					<g>
						<path fill-rule="evenodd" clip-rule="evenodd" fill="#F8EA47" d="M429.081,472.949c13.068-6.772,28.639-10.526,44.942-10.526
							c16.797,0,32.762,3.903,45.983,10.93L429.081,472.949z"/>
					</g>
					<g>
						<path fill-rule="evenodd" clip-rule="evenodd" fill="#F8EA47" d="M390.509,565.232
							c-13.164-17.923-28.243-33.781-45.113-47.411c-26.17-21.154-55.284-36.536-88.575-46.743
							c3.894-9.066,7.654-17.662,12.002-25.742c1.281-2.379,2.37-4.469,3.323-6.299c1.858,0.686,4,1.455,6.486,2.277
							c41.817,13.857,79.248,37.227,111.258,69.455c0.126,0.127,0.273,0.314,0.399,0.499
							C390.472,529.184,390.516,547.293,390.509,565.232z"/>
					</g>
					<g>
						<path fill-rule="evenodd" clip-rule="evenodd" fill="#F8EA47" d="M335.608,630.076
							c-14.206-24.643-32.584-44.127-54.789-58.045c-9.164-5.742-18.758-10.149-28.038-14.41c-4.194-1.928-8.187-3.761-12.091-5.689
							c-0.085-14.08,1.342-27.735,4.317-41.297c55.482,17.201,96.93,50.109,126.047,100.072L335.608,630.076z"/>
					</g>
					<g>
						<path fill-rule="evenodd" clip-rule="evenodd" fill="#F8EA47" d="M277.543,682.854c-16.968-26.16-28.014-54.285-33.418-85.127
							c14.387,7.005,26.532,16.256,36.775,27.961c7.101,8.115,13.041,17.683,19.329,27.813c0.656,1.053,1.308,2.104,1.964,3.156
							C294.201,665.328,286.042,673.929,277.543,682.854z"/>
					</g>
					<g>
						<path fill-rule="evenodd" clip-rule="evenodd" fill="#F8EA47" d="M557.546,565.232c-0.007-17.939,0.038-36.051,0.219-53.961
							c0.13-0.188,0.276-0.379,0.403-0.505c32.011-32.229,69.445-55.597,111.258-69.452c2.486-0.822,4.625-1.592,6.482-2.277
							c0.953,1.83,2.042,3.922,3.327,6.301c4.348,8.076,8.105,16.674,12.002,25.74c-33.288,10.205-62.409,25.591-88.582,46.744
							C585.79,531.451,570.71,547.31,557.546,565.232z"/>
					</g>
					<g>
						<path fill-rule="evenodd" clip-rule="evenodd" fill="#F8EA47" d="M577.001,610.705
							c29.118-49.961,70.565-82.869,126.047-100.07c2.975,13.562,4.402,27.217,4.317,41.299c-3.904,1.927-7.896,3.761-12.091,5.686
							c-9.28,4.261-18.874,8.669-28.038,14.412c-22.208,13.924-40.587,33.407-54.786,58.045L577.001,610.705z"/>
					</g>
					<g>
						<path fill-rule="evenodd" clip-rule="evenodd" fill="#F8EA47" d="M670.512,682.854c-8.495-8.922-16.654-17.521-24.65-26.197
							c0.652-1.049,1.305-2.096,1.957-3.145c6.292-10.133,12.234-19.705,19.339-27.826c10.24-11.703,22.385-20.954,36.775-27.959
							C698.53,628.566,687.484,656.69,670.512,682.854z"/>
					</g>
				</g>
			</g>
			<g>
				<path fill-rule="evenodd" clip-rule="evenodd" fill="#232222" d="M429.105,611.521c-5.794,0-10.493-4.697-10.493-10.492v-88.957
					c0-5.794,4.698-10.492,10.493-10.492h89.504c5.794,0,10.493,4.698,10.493,10.492v88.957c0,5.795-4.698,10.492-10.493,10.492
					H429.105z M493.532,576.09v-39.078h-39.084v39.078H493.532z"/>
				<path fill-rule="evenodd" clip-rule="evenodd" fill="#F7CE3C" d="M429.105,602.777c-0.966,0-1.749-0.781-1.749-1.748v-88.957
					c0-0.966,0.783-1.748,1.749-1.748h89.504c0.966,0,1.749,0.782,1.749,1.748v88.957c0,0.967-0.783,1.748-1.749,1.748H429.105z
					 M502.276,584.834v-56.566h-56.571v56.566H502.276z"/>
				<path fill-rule="evenodd" clip-rule="evenodd" fill="#F8EA47" d="M430.854,599.28v-85.458h86.007v85.458H430.854z
					 M443.956,524.77c-0.966,0-1.749,0.783-1.749,1.75v60.063c0,0.967,0.783,1.749,1.749,1.749h60.069
					c0.966,0,1.749-0.782,1.749-1.749V526.52c0-0.967-0.783-1.75-1.749-1.75H443.956z"/>
			</g>
			<defs>
				<filter id="Adobe_OpacityMaskFilter" filterUnits="userSpaceOnUse" x="240.909" y="323.449" width="466.237" height="466.376">
					<feColorMatrix  type="matrix" values="1 0 0 0 0  0 1 0 0 0  0 0 1 0 0  0 0 0 1 0"/>
				</filter>
			</defs>
			<mask maskUnits="userSpaceOnUse" x="240.909" y="323.449" width="466.237" height="466.376" id="SVGID_1_">
				<g filter="url(#Adobe_OpacityMaskFilter)">
					<g>
						
							<rect x="307.252" y="161.882" transform="matrix(0.8295 0.5586 -0.5586 0.8295 323.7974 -126.6067)" fill-rule="evenodd" clip-rule="evenodd" fill="#FFFFFF" width="123.966" height="610.161"/>
						<polygon fill-rule="evenodd" clip-rule="evenodd" fill="#FFFFFF" points="322.926,798.803 285.464,773.572 626.277,267.473 
							663.746,292.703 						"/>
						
							<rect x="602.103" y="298.868" transform="matrix(0.8294 0.5586 -0.5586 0.8294 443.5638 -244.688)" fill-rule="evenodd" clip-rule="evenodd" fill="#FFFFFF" width="40.661" height="610.156"/>
					</g>
				</g>
			</mask>
			<g mask="url(#SVGID_1_)">
				<path fill-rule="evenodd" clip-rule="evenodd" fill="#FFF1A1" d="M622.391,415.436c-39.388-39.545-93.033-62.02-148.887-62.02
					c-56.268,0-108.471,21.91-148.231,61.957c-5.96-2.626-12.098-5.305-18.342-7.783c-3.019-1.199-6.052-2.34-9.126-3.462
					c40.696-46.782,91.39-73.439,150.964-79.311c9.208-0.907,18.365-1.368,27.215-1.368c68.687,0,125.945,26.476,174.452,80.818
					L622.391,415.436z"/>
				<path fill-rule="evenodd" clip-rule="evenodd" fill="#FFF1A1" d="M620.775,737.422c-37.711-50.133-86.953-75.524-146.616-75.524
					c-59.673,0.043-108.935,25.417-146.766,75.483l-23.646-21.337c0.857-0.977,1.704-1.946,2.544-2.911
					c8.901-10.197,17.307-19.826,26.296-28.437c19.605-18.784,43.48-32.843,72.987-42.983c1.387-0.447,6.028-1.105,9.957-1.42
					l117.491-0.066c2.667,0,4.59,0.162,5.332,0.281c43.21,13.945,77.919,38.779,105.705,75.717L620.775,737.422z"/>
				<path fill-rule="evenodd" clip-rule="evenodd" fill="#FFF1A1" d="M383.401,771.406c-3.125-1.33-6.141-2.667-9.065-4.109
					c-4.129-2.04-8.31-4.25-12.446-6.475c16.47-24.639,53.327-53.957,100.271-56.983c3.122-0.202,6.295-0.304,9.434-0.304
					c46.95,0,91.889,22.875,114.827,57.09l-21.853,10.767c-23.202-28.104-55.588-43.96-90.696-43.96
					C438.72,727.432,406.388,743.299,383.401,771.406z"/>
				<path fill-rule="evenodd" clip-rule="evenodd" fill="#FFF1A1" d="M364.083,437.154c28.226-26.822,67.358-41.915,109.906-41.915
					c42.441,0,81.607,15.099,109.994,41.926l-21.747,14.991c-25.948-20.18-56.821-31.162-88.183-31.162
					c-31.478,0-62.361,10.989-88.203,31.179L364.083,437.154z"/>
				<path fill-rule="evenodd" clip-rule="evenodd" fill="#FFF1A1" d="M474.231,789.825c-15.237,0-30.388-1.507-45.816-4.577
					c13.041-10.883,28.004-16.063,45.843-16.063h0.308c17.768,0.058,32.56,5.224,45.321,16.014
					C504.65,788.302,489.553,789.825,474.231,789.825z"/>
				<path fill-rule="evenodd" clip-rule="evenodd" fill="#FFF1A1" d="M430.006,472.729c12.863-6.492,28.09-10.08,44.017-10.08
					c16.418,0,32.038,3.736,45.064,10.475L430.006,472.729z"/>
				<path fill-rule="evenodd" clip-rule="evenodd" fill="#FFF1A1" d="M390.284,564.549c-13.078-17.715-28.035-33.402-44.744-46.902
					c-26.132-21.119-55.199-36.494-88.415-46.711c3.856-8.976,7.586-17.488,11.896-25.491c1.24-2.306,2.302-4.341,3.231-6.13
					c1.817,0.672,3.9,1.416,6.308,2.212c41.783,13.849,79.187,37.197,111.169,69.4c0.106,0.106,0.226,0.259,0.334,0.413
					C390.246,529.004,390.291,546.855,390.284,564.549z"/>
				<path fill-rule="evenodd" clip-rule="evenodd" fill="#FFF1A1" d="M335.693,629.775c-14.208-24.586-32.574-44.031-54.754-57.936
					c-9.174-5.748-18.775-10.158-28.062-14.424c-4.146-1.904-8.102-3.721-11.965-5.625c-0.072-13.933,1.335-27.447,4.263-40.869
					c55.233,17.182,96.53,49.966,125.569,99.698L335.693,629.775z"/>
				<path fill-rule="evenodd" clip-rule="evenodd" fill="#FFF1A1" d="M277.578,682.492c-16.784-25.941-27.745-53.819-33.155-84.369
					c14.185,6.969,26.18,16.14,36.307,27.711c7.091,8.104,13.027,17.666,19.312,27.789c0.622,1.003,1.247,2.006,1.869,3.006
					C294.02,665.189,285.963,673.684,277.578,682.492z"/>
				<path fill-rule="evenodd" clip-rule="evenodd" fill="#FFF1A1" d="M557.772,564.549c-0.003-17.693,0.038-35.547,0.219-53.209
					c0.109-0.154,0.232-0.307,0.334-0.413c31.987-32.205,69.39-55.554,111.172-69.4c2.405-0.796,4.488-1.54,6.305-2.212
					c0.929,1.79,1.992,3.826,3.235,6.13c4.307,8.001,8.037,16.515,11.893,25.491c-33.216,10.217-62.282,25.592-88.415,46.713
					C585.807,531.15,570.85,546.836,557.772,564.549z"/>
				<path fill-rule="evenodd" clip-rule="evenodd" fill="#FFF1A1" d="M577.315,610.62c29.039-49.732,70.33-82.517,125.566-99.698
					c2.927,13.42,4.334,26.937,4.263,40.871c-3.866,1.905-7.818,3.719-11.965,5.625c-9.287,4.264-18.888,8.674-28.062,14.422
					c-22.184,13.908-40.546,33.354-54.751,57.936L577.315,610.62z"/>
				<path fill-rule="evenodd" clip-rule="evenodd" fill="#FFF1A1" d="M670.481,682.493c-8.385-8.806-16.442-17.3-24.336-25.864
					c0.619-0.997,1.237-1.992,1.855-2.988c6.292-10.129,12.231-19.697,19.329-27.81c10.124-11.57,22.119-20.741,36.307-27.708
					C698.226,628.666,687.266,656.547,670.481,682.493z"/>
				<path fill-rule="evenodd" clip-rule="evenodd" fill="#FFF1A1" d="M430.877,599.255v-85.407h85.959v85.407H430.877z
					 M443.956,524.744c-0.977,0-1.772,0.795-1.772,1.775v60.063c0,0.98,0.796,1.772,1.772,1.772h60.069
					c0.98,0,1.772-0.792,1.772-1.772V526.52c0-0.98-0.792-1.775-1.772-1.775H443.956z"/>
			</g>
		</g>
	</g>
</g>
</svg>
